# xmcd
#
# Track frame offsets:
#	150
#	14265
#	30157
#	45881
#	60279
#	88792
#	99941
#	115023
#	129859
#	144825
#	159817
#	174327
#	186146
#	213621
#	227724
#	242234
#	260849
#	277278
#	298983
#
# Disc length: 4228 seconds
#
# Revision: 0
# Processed by: cddbd v1.5PL3 Copyright (c) Steve Scherf et al.
# Submitted via: dBpowerAMP V4.0
#
DISCID=fb108213
DTITLE=Diana Ross - Diana Ross 
DYEAR=2002
DGENRE=Pop
TTITLE0=Reach Out and Touch (Somebody's Hand)
TTITLE1=Now That There's You
TTITLE2=You're All I need To Get By
TTITLE3=These Things Will Keep Me Loving You
TTITLE4=Ain't No Mountain High Enough
TTITLE5=Something On My Mind
TTITLE6=I Wouldn't Change The Man He Is
TTITLE7=Keep An Eye
TTITLE8=Where There Was Darkness
TTITLE9=Can't It Wait Until Tomorrow
TTITLE10=Dark Side Of the World
TTITLE11=Something On My Mind (Live at the Grove)
TTITLE12=Ain't No Mountain High Enough (alt mix)
TTITLE13=Now That There's You (alt vocal version)
TTITLE14=These Things Will Keep Me Loving You (alt mix)
TTITLE15=Time and Love
TTITLE16=Stoney End
TTITLE17=The Interim
TTITLE18=Love's Lines Angles and Rhymes
EXTD=
EXTT0=
EXTT1=
EXTT2=
EXTT3=
EXTT4=
EXTT5=
EXTT6=
EXTT7=
EXTT8=
EXTT9=
EXTT10=
EXTT11=
EXTT12=
EXTT13=
EXTT14=
EXTT15=
EXTT16=
EXTT17=
EXTT18=
PLAYORDER=
